<svg xmlns="http://www.w3.org/2000/svg" width="400" height="400" viewBox="0 0 41 41" shape-rendering="crispEdges"><path fill="#FFFFFF" d="M0 0h41v41H0z"/><path stroke="#000000" d="M2 2.5h7m1 0h1m2 0h1m5 0h3m1 0h1m1 0h3m2 0h1m1 0h7M2 3.5h1m5 0h1m1 0h1m3 0h2m2 0h3m1 0h1m1 0h1m2 0h1m4 0h1m5 0h1M2 4.5h1m1 0h3m1 0h1m1 0h1m1 0h4m2 0h1m3 0h2m2 0h4m2 0h1m1 0h3m1 0h1M2 5.5h1m1 0h3m1 0h1m2 0h7m1 0h1m1 0h3m2 0h2m2 0h1m1 0h1m1 0h3m1 0h1M2 6.5h1m1 0h3m1 0h1m1 0h1m1 0h2m2 0h6m8 0h1m1 0h1m1 0h3m1 0h1M2 7.5h1m5 0h1m2 0h1m3 0h1m1 0h4m2 0h1m1 0h4m1 0h1m1 0h1m5 0h1M2 8.5h7m1 0h1m1 0h1m1 0h1m1 0h1m1 0h1m1 0h1m1 0h1m1 0h1m1 0h1m1 0h1m1 0h1m1 0h7M11 9.5h1m2 0h2m1 0h2m4 0h1m3 0h1M2 10.5h1m2 0h6m1 0h2m4 0h1m1 0h1m1 0h2m2 0h1m1 0h1m1 0h2m2 0h1m1 0h3M2 11.5h1m1 0h3m2 0h1m1 0h5m3 0h1m2 0h3m3 0h2m1 0h1m2 0h1m1 0h2M2 12.5h2m1 0h6m4 0h1m7 0h2m1 0h1m1 0h2m4 0h3m1 0h1M4 13.5h1m1 0h1m3 0h1m2 0h3m1 0h1m1 0h1m4 0h1m7 0h2m1 0h4M2 14.5h1m3 0h1m1 0h1m3 0h2m2 0h1m1 0h1m2 0h2m6 0h2m1 0h2m2 0h1m1 0h1M2 15.5h2m1 0h3m1 0h2m4 0h1m1 0h4m1 0h1m2 0h1m1 0h4m3 0h2m1 0h1M3 16.5h1m2 0h3m2 0h2m1 0h1m1 0h2m1 0h1m1 0h4m2 0h4m1 0h1m1 0h5M2 17.5h2m2 0h2m1 0h1m2 0h1m3 0h1m2 0h2m4 0h1m7 0h1m1 0h4M2 18.5h1m2 0h2m1 0h2m2 0h1m1 0h6m2 0h2m2 0h5m1 0h2m2 0h3M2 19.5h6m1 0h1m6 0h1m1 0h1m1 0h1m1 0h1m2 0h6m1 0h1m2 0h1M2 20.5h2m2 0h4m2 0h1m1 0h4m1 0h1m2 0h2m1 0h3m1 0h1m2 0h3m3 0h1M2 21.5h1m2 0h1m1 0h1m2 0h1m2 0h1m1 0h2m7 0h2m1 0h3m1 0h2m1 0h2m2 0h1M3 22.5h1m4 0h1m1 0h1m2 0h8m5 0h1m1 0h2m1 0h4M3 23.5h5m1 0h2m2 0h3m1 0h1m3 0h1m1 0h3m2 0h2m4 0h1m1 0h2M3 24.5h2m1 0h1m1 0h1m5 0h2m1 0h4m1 0h1m1 0h3m1 0h2m3 0h1m1 0h1m2 0h1M2 25.5h1m1 0h1m1 0h2m1 0h1m1 0h1m1 0h3m1 0h3m1 0h6m2 0h1m3 0h4m1 0h1M2 26.5h2m1 0h1m2 0h1m3 0h1m1 0h2m2 0h3m2 0h1m6 0h1m1 0h1M2 27.5h1m2 0h3m4 0h2m1 0h2m1 0h2m1 0h2m2 0h6m3 0h1M2 28.5h2m3 0h2m1 0h3m1 0h1m1 0h1m1 0h2m1 0h3m3 0h1m1 0h1m1 0h1m5 0h2M2 29.5h1m1 0h3m7 0h2m1 0h1m4 0h1m1 0h2m4 0h1m4 0h4M2 30.5h1m1 0h3m1 0h5m9 0h1m1 0h4m1 0h6m1 0h3M10 31.5h2m1 0h3m1 0h1m3 0h2m1 0h1m3 0h1m1 0h1m3 0h1m1 0h1M2 32.5h7m1 0h2m2 0h4m3 0h5m4 0h1m1 0h1m1 0h1m2 0h2M2 33.5h1m5 0h1m1 0h1m2 0h2m2 0h4m1 0h1m1 0h1m1 0h3m1 0h1m3 0h1M2 34.5h1m1 0h3m1 0h1m1 0h2m4 0h1m4 0h1m1 0h2m1 0h1m2 0h6m2 0h1M2 35.5h1m1 0h3m1 0h1m1 0h1m1 0h1m3 0h1m1 0h1m1 0h1m2 0h1m1 0h1m1 0h1m1 0h4m2 0h2m1 0h1M2 36.5h1m1 0h3m1 0h1m2 0h3m3 0h3m1 0h3m1 0h1m1 0h2m5 0h1m3 0h1M2 37.5h1m5 0h1m2 0h1m2 0h1m1 0h1m1 0h5m3 0h1m2 0h1m1 0h2m1 0h5M2 38.5h7m1 0h2m2 0h1m1 0h3m6 0h2m2 0h3m1 0h1m1 0h1m2 0h1"/>
      <!-- White circle background -->
      <circle cx="20.5" cy="20.5" r="4.92" fill="white" stroke="black" stroke-width="0.3"/>
      <!-- Number text -->
      <text x="20.5" y="20.5" text-anchor="middle" dominant-baseline="central" 
            font-family="Arial, sans-serif" font-weight="bold" font-size="1.7589000000000001" 
            fill="black">Suit-42</text>
      </svg>
